<?xml version="1.0" encoding="UTF-8"?>
<svg xmlns="http://www.w3.org/2000/svg" xmlns:xlink="http://www.w3.org/1999/xlink" width="480pt" height="480pt" viewBox="0 0 480 480" version="1.1">
<g id="surface1613868">
<path style=" stroke:none;fill-rule:nonzero;fill:rgb(96.078432%,0%,34.117648%);fill-opacity:1;" d="M 240 50 C 135.066406 50 50 135.066406 50 240 C 50 344.933594 135.066406 430 240 430 C 344.933594 430 430 344.933594 430 240 C 430 135.066406 344.933594 50 240 50 Z M 240 50 "/>
<path style=" stroke:none;fill-rule:nonzero;fill:rgb(100%,100%,100%);fill-opacity:1;" d="M 265.71875 290.359375 L 314.890625 290.359375 L 322.609375 240.410156 L 265.710938 240.410156 L 265.710938 213.109375 C 265.710938 192.359375 272.488281 173.960938 291.898438 173.960938 L 323.089844 173.960938 L 323.089844 130.371094 C 317.609375 129.628906 306.019531 128.011719 284.121094 128.011719 C 238.390625 128.011719 211.578125 152.160156 211.578125 207.179688 L 211.578125 240.410156 L 164.570312 240.410156 L 164.570312 290.359375 L 211.578125 290.359375 L 211.578125 427.648438 C 220.890625 429.050781 230.320312 430 240 430 C 248.75 430 257.289062 429.199219 265.71875 428.058594 Z M 265.71875 290.359375 "/>
</g>
</svg>
